# xmcd
#
# Track frame offsets: 
#        150
#        11000
#        24400
#        41907
#        55700
#        70772
#        82867
#        94625
#        110882
#        123092
#        138285
#        150885
#        162120
#        179867
#
# Disc length: 2645 seconds
#
# Revision: 1
# Processed by: cddbd v1.5.2PL0 Copyright (c) Steve Scherf et al.
# Submitted via: ExactAudioCopy v1.1
#
DISCID=aa0a530e
DTITLE=Don Spencer - Let's Have Fun
DYEAR=1990
DGENRE=Chirldren
TTITLE0=Pat The Cat (And Bob The Dog)
TTITLE1=Practice Makes Perfect
TTITLE2=Maggie and Colin
TTITLE3=Clap Your Hands
TTITLE4=It's A Creation
TTITLE5=I Want To Be A Clown
TTITLE6=Let's Have Fun
TTITLE7=In The Jungle
TTITLE8=Keep Your Kool
TTITLE9=Balanced Diet
TTITLE10=A Song Of The Seasons
TTITLE11=Super Computer
TTITLE12=Wouldn't It Be A Funny Place
TTITLE13=I Ain't Gonna Hop. Pop!
EXTD=
EXTT0=
EXTT1=
EXTT2=
EXTT3=
EXTT4=
EXTT5=
EXTT6=
EXTT7=
EXTT8=
EXTT9=
EXTT10=
EXTT11=
EXTT12=
EXTT13=
PLAYORDER=
